<?xml version="1.0" standalone="no"?>
<!DOCTYPE svg PUBLIC "-//W3C//DTD SVG 20010904//EN"
 "http://www.w3.org/TR/2001/REC-SVG-20010904/DTD/svg10.dtd">
<svg version="1.0" xmlns="http://www.w3.org/2000/svg"
 width="40.000000pt" height="40.000000pt" viewBox="0 0 40.000000 40.000000"
 preserveAspectRatio="xMidYMid meet">

<g transform="translate(0.000000,40.000000) scale(0.100000,-0.100000)"
fill="#000000" stroke="none">
<path d="M8 378 c16 -16 16 -140 0 -156 -9 -9 -2 -12 32 -12 l45 0 -3 90 -3
90 -42 0 c-32 0 -38 -3 -29 -12z"/>
<path d="M110 365 c13 -14 25 -25 27 -25 2 0 3 11 3 25 0 20 -5 25 -27 25
l-26 0 23 -25z"/>
<path d="M181 371 c-30 -30 -35 -75 -14 -118 10 -20 27 -40 38 -43 19 -7 20
-3 20 86 0 100 -7 112 -44 75z"/>
<path d="M248 378 c19 -19 15 -118 -5 -134 -11 -8 -13 -13 -6 -14 7 0 10 -6 7
-13 -3 -10 6 -14 36 -15 22 -1 40 3 40 8 0 6 -6 10 -14 10 -12 0 -12 5 1 31
28 56 -2 139 -51 139 -15 0 -17 -3 -8 -12z"/>
<path d="M102 323 c-10 -19 -10 -27 0 -45 l13 -23 3 23 c2 12 2 32 0 45 l-3
22 -13 -22z"/>
</g>
</svg>
